Coordinates
version=1
nRows=9
nColumns=36
inDegrees=yes

Units are S.I. units (second, meters, Newtons, ...)
If the header above contains a line with 'inDegrees', this indicates whether rotational values are in degrees (yes) or radians (no).

endheader
time	pelvis_tilt	pelvis_list	pelvis_rotation	pelvis_tx	pelvis_ty	pelvis_tz	hip_flexion_r	hip_adduction_r	hip_rotation_r	knee_angle_r	knee_angle_r_beta	ankle_angle_r	subtalar_angle_r	mtp_angle_r	hip_flexion_l	hip_adduction_l	hip_rotation_l	knee_angle_l	knee_angle_l_beta	ankle_angle_l	subtalar_angle_l	mtp_angle_l	lumbar_extension	lumbar_bending	lumbar_rotation	arm_flex_r	arm_add_r	arm_rot_r	elbow_flex_r	pro_sup_r	arm_flex_l	arm_add_l	arm_rot_l	elbow_flex_l	pro_sup_l
      4.45000000	     17.61679074	     -4.94851041	     -2.12908797	      1.16626743	      1.03467977	     -0.32855554	    -20.83010268	      3.67094824	      1.16821707	      3.79347795	      0.06620868	     20.10726665	      5.44626039	     -7.49999987	    -25.26354120	     -5.05786367	     -4.94879151	      1.20677916	      0.02106227	     19.27735479	      3.74253019	     -7.49999987	    -28.80056523	      4.76037201	     -0.21930691	    197.38279645	   -168.12323512	    197.92872475	     17.15125751	     92.52647571	    365.91115987	     -8.38668497	    355.25172096	     21.07483448	     90.44233903
      4.46666670	     17.63043224	     -4.92566010	     -2.04188716	      1.17633130	      1.03606382	     -0.32358955	    -21.10789738	      3.69836645	      1.16758270	      3.73705442	      0.06522390	     20.22693332	      5.41021938	     -7.49999987	    -25.51502167	     -5.08861926	     -4.99739294	      1.11941909	      0.01953755	     19.18906339	      3.72827569	     -7.49999987	    -28.36252418	      4.75280496	     -0.17179385	    197.92273962	   -168.51932959	    197.94869350	     17.46312025	     92.53282770	    366.48947790	     -8.16853821	    355.32808744	     21.35562699	     90.47035513
      4.48333330	     17.67262961	     -4.92401813	     -2.01499307	      1.18144190	      1.03575745	     -0.32044590	    -21.43578415	      3.74758130	      1.16735779	      3.68893461	      0.06438405	     20.33605862	      5.38082463	     -7.49999987	    -25.81419247	     -5.13769379	     -5.01814715	      1.09123068	      0.01904557	     19.10087657	      3.71692469	     -7.49999987	    -27.81855955	      4.69511836	     -0.14574980	    198.40055318	   -168.86001625	    197.97402259	     17.75459330	     92.53920020	    367.02600076	     -8.01143008	    355.39664697	     21.63753193	     90.49239374
      4.50000000	     18.12604981	     -4.90258287	     -1.94804965	      1.18021366	      1.03628632	     -0.32101356	    -22.25229688	      3.76301755	      1.32940055	      3.45051714	      0.06022289	     20.48699765	      5.30994505	     -7.49999987	    -26.55877427	     -5.14579335	     -4.94338125	      0.94079832	      0.01642003	     18.79940348	      3.57807005	     -7.49999987	    -28.14966551	      4.56974170	     -0.38145393	    198.98773689	   -168.90113395	    199.90884071	     19.42667874	     91.82678184	    367.37283988	     -8.46305541	    357.92882011	     23.36350011	     90.50885760
      4.51666670	     18.26519962	     -4.90031399	     -1.90922023	      1.17990568	      1.03834884	     -0.32083492	    -22.59034921	      3.82611443	      1.43886242	      3.43831206	      0.06000987	     20.57179291	      5.12911343	     -7.49999987	    -26.88654127	     -5.20706825	     -4.84992190	      0.89915116	      0.01569315	     18.62205555	      3.42699745	     -7.49999987	    -28.05561742	      4.46345754	     -0.42563182	    199.59220970	   -169.09523612	    200.10028248	     20.37070375	     91.87988146	    367.96049509	     -8.62835697	    358.84052763	     24.40045875	     90.95185849
      4.53333330	     18.15648750	     -4.89237506	     -1.91327794	      1.17402184	      1.03801059	     -0.32416601	    -22.58572593	      3.86134119	      1.39261843	      3.41905446	      0.05967376	     20.64088173	      5.07566015	     -7.49999987	    -26.89009261	     -5.23123786	     -4.86470954	      0.85670655	      0.01495235	     18.63734914	      3.42250227	     -7.49999987	    -27.76178330	      4.40236436	     -0.44375272	    200.52883918	   -169.34644088	    200.08080699	     20.75878090	     91.87303910	    368.95369611	     -8.48441243	    358.91353292	     24.83297394	     90.97037829
      4.55000000	     18.35217489	     -4.88496048	     -1.89789216	      1.17356381	      1.03692692	     -0.32333183	    -22.73961160	      3.88395929	      1.41228518	      3.63262164	      0.06340121	     20.62524325	      4.79165973	     -7.49999987	    -27.09686357	     -5.23727227	     -4.78482204	      0.92237420	      0.01609847	     18.57360453	      3.14132192	     -7.49999987	    -28.17554076	      4.30766003	     -0.40126247	    201.59942995	   -169.08120757	    202.47635070	     22.26899054	     86.26788694	    370.10255962	     -9.08245308	    363.06718533	     26.38268911	     86.77338602
      4.56666670	     18.38886538	     -4.92135093	     -1.92106762	      1.17323997	      1.04008184	     -0.32402791	    -22.75943007	      3.93332292	      1.37566582	      3.73731575	      0.06522846	     20.71828595	      4.78665838	     -7.49999987	    -27.16325301	     -5.26622899	     -4.95463676	      0.93713020	      0.01635601	     18.55242132	      3.18961321	     -7.49999987	    -28.41411938	      4.29385802	     -0.63368406	    202.73842843	   -169.08696859	    203.36038996	     23.50289668	     88.20615590	    370.77711048	     -9.04211169	    362.45405248	     28.07674831	     88.25813210
      4.58333330	     18.39013638	     -4.90211055	     -1.93161013	      1.17318909	      1.03888271	     -0.32863682	    -22.66916321	      3.90684812	      1.28492529	      3.95068391	      0.06895244	     20.80541264	      4.65900333	     -7.49999987	    -27.18952423	     -5.23027668	     -5.04472016	      0.95490958	      0.01666632	     18.43183044	      3.08388837	     -7.49999987	    -28.53495742	      4.28026904	     -0.67211668	    203.82541242	   -169.19474340	    203.26135590	     23.99870128	     88.21067245	    371.84840093	     -8.82369382	    362.57511987	     28.72922118	     88.30478595
